<svg width="1337" height="100" viewBox="0 0 1337 100" fill="none" xmlns="http://www.w3.org/2000/svg">
<path fill-rule="evenodd" clip-rule="evenodd" d="M1312.01 37.7296C1312.01 38.1323 1312.28 38.4592 1312.61 38.4592H1314.71C1315.48 38.4592 1316.12 39.0136 1316.36 39.8956L1319.54 51.4759L1317.73 56.9671C1317.57 57.4546 1317.87 57.956 1318.29 57.9678H1331.54C1331.87 57.9678 1332.14 57.6409 1332.14 57.2381C1332.14 56.8354 1331.87 56.5086 1331.54 56.5086H1319.18L1320.59 52.2296H1331.54C1331.8 52.2296 1332.03 52.02 1332.11 51.7297L1335.87 41.4658C1336.05 40.9727 1335.75 40.4604 1335.32 40.4424H1317.77L1317.5 39.4391C1317.09 37.9668 1315.99 37 1314.71 37H1312.61C1312.28 37 1312.01 37.3269 1312.01 37.7296ZM1320.61 50.7705L1318.18 41.9016H1334.4L1331.15 50.7705H1320.61Z" fill="#1A1A1A"/>
<path fill-rule="evenodd" clip-rule="evenodd" d="M1319.53 58.7744C1320.28 58.7744 1320.89 59.4968 1320.89 60.3877C1320.89 61.2778 1320.28 62.0002 1319.53 62.0002C1318.77 62.0002 1318.16 61.2778 1318.16 60.3877C1318.16 59.4968 1318.77 58.7744 1319.53 58.7744Z" fill="#1A1A1A"/>
<path fill-rule="evenodd" clip-rule="evenodd" d="M1330.46 58.7744C1331.21 58.7744 1331.82 59.4968 1331.82 60.3877C1331.82 61.2778 1331.21 62.0002 1330.46 62.0002C1329.7 62.0002 1329.09 61.2778 1329.09 60.3877C1329.09 59.4968 1329.7 58.7744 1330.46 58.7744Z" fill="#1A1A1A"/>
<path d="M736.754 50.1973C735.789 49.9199 735.086 49.5801 734.645 49.1777C734.207 48.7715 733.988 48.2715 733.988 47.6777C733.988 47.0059 734.256 46.4512 734.791 46.0137C735.33 45.5723 736.029 45.3516 736.889 45.3516C737.475 45.3516 737.996 45.4648 738.453 45.6914C738.914 45.918 739.27 46.2305 739.52 46.6289C739.773 47.0273 739.9 47.4629 739.9 47.9355H738.77C738.77 47.4199 738.605 47.0156 738.277 46.7227C737.949 46.4258 737.486 46.2773 736.889 46.2773C736.334 46.2773 735.9 46.4004 735.588 46.6465C735.279 46.8887 735.125 47.2266 735.125 47.6602C735.125 48.0078 735.271 48.3027 735.564 48.5449C735.861 48.7832 736.363 49.002 737.07 49.2012C737.781 49.4004 738.336 49.6211 738.734 49.8633C739.137 50.1016 739.434 50.3809 739.625 50.7012C739.82 51.0215 739.918 51.3984 739.918 51.832C739.918 52.5234 739.648 53.0781 739.109 53.4961C738.57 53.9102 737.85 54.1172 736.947 54.1172C736.361 54.1172 735.814 54.0059 735.307 53.7832C734.799 53.5566 734.406 53.248 734.129 52.8574C733.855 52.4668 733.719 52.0234 733.719 51.5273H734.85C734.85 52.043 735.039 52.4512 735.418 52.752C735.801 53.0488 736.311 53.1973 736.947 53.1973C737.541 53.1973 737.996 53.0762 738.312 52.834C738.629 52.5918 738.787 52.2617 738.787 51.8438C738.787 51.4258 738.641 51.1035 738.348 50.877C738.055 50.6465 737.523 50.4199 736.754 50.1973ZM749.922 54H748.791V50.0566H744.49V54H743.365V45.4688H744.49V49.1367H748.791V45.4688H749.922V54ZM760.482 50.0098C760.482 50.8457 760.342 51.5762 760.061 52.2012C759.779 52.8223 759.381 53.2969 758.865 53.625C758.35 53.9531 757.748 54.1172 757.061 54.1172C756.389 54.1172 755.793 53.9531 755.273 53.625C754.754 53.293 754.35 52.8223 754.061 52.2129C753.775 51.5996 753.629 50.8906 753.621 50.0859V49.4707C753.621 48.6504 753.764 47.9258 754.049 47.2969C754.334 46.668 754.736 46.1875 755.256 45.8555C755.779 45.5195 756.377 45.3516 757.049 45.3516C757.732 45.3516 758.334 45.5176 758.854 45.8496C759.377 46.1777 759.779 46.6562 760.061 47.2852C760.342 47.9102 760.482 48.6387 760.482 49.4707V50.0098ZM759.363 49.459C759.363 48.4473 759.16 47.6719 758.754 47.1328C758.348 46.5898 757.779 46.3184 757.049 46.3184C756.338 46.3184 755.777 46.5898 755.367 47.1328C754.961 47.6719 754.752 48.4219 754.74 49.3828V50.0098C754.74 50.9902 754.945 51.7617 755.355 52.3242C755.77 52.8828 756.338 53.1621 757.061 53.1621C757.787 53.1621 758.35 52.8984 758.748 52.3711C759.146 51.8398 759.352 51.0801 759.363 50.0918V49.459ZM765.295 50.6602V54H764.17V45.4688H767.316C768.25 45.4688 768.98 45.707 769.508 46.1836C770.039 46.6602 770.305 47.291 770.305 48.0762C770.305 48.9043 770.045 49.543 769.525 49.9922C769.01 50.4375 768.27 50.6602 767.305 50.6602H765.295ZM765.295 49.7402H767.316C767.918 49.7402 768.379 49.5996 768.699 49.3184C769.02 49.0332 769.18 48.623 769.18 48.0879C769.18 47.5801 769.02 47.1738 768.699 46.8691C768.379 46.5645 767.939 46.4062 767.381 46.3945H765.295V49.7402Z" fill="black"/>
<path d="M551.088 50.0566H547.391V53.0801H551.686V54H546.266V45.4688H551.627V46.3945H547.391V49.1367H551.088V50.0566ZM557.869 48.7383L559.914 45.4688H561.238L558.543 49.6992L561.303 54H559.967L557.869 50.6719L555.76 54H554.43L557.195 49.6992L554.494 45.4688H555.812L557.869 48.7383ZM565.734 50.6602V54H564.609V45.4688H567.756C568.689 45.4688 569.42 45.707 569.947 46.1836C570.479 46.6602 570.744 47.291 570.744 48.0762C570.744 48.9043 570.484 49.543 569.965 49.9922C569.449 50.4375 568.709 50.6602 567.744 50.6602H565.734ZM565.734 49.7402H567.756C568.357 49.7402 568.818 49.5996 569.139 49.3184C569.459 49.0332 569.619 48.623 569.619 48.0879C569.619 47.5801 569.459 47.1738 569.139 46.8691C568.818 46.5645 568.379 46.4062 567.82 46.3945H565.734V49.7402ZM575.311 53.0801H579.354V54H574.18V45.4688H575.311V53.0801ZM588.812 50.0098C588.812 50.8457 588.672 51.5762 588.391 52.2012C588.109 52.8223 587.711 53.2969 587.195 53.625C586.68 53.9531 586.078 54.1172 585.391 54.1172C584.719 54.1172 584.123 53.9531 583.604 53.625C583.084 53.293 582.68 52.8223 582.391 52.2129C582.105 51.5996 581.959 50.8906 581.951 50.0859V49.4707C581.951 48.6504 582.094 47.9258 582.379 47.2969C582.664 46.668 583.066 46.1875 583.586 45.8555C584.109 45.5195 584.707 45.3516 585.379 45.3516C586.062 45.3516 586.664 45.5176 587.184 45.8496C587.707 46.1777 588.109 46.6562 588.391 47.2852C588.672 47.9102 588.812 48.6387 588.812 49.4707V50.0098ZM587.693 49.459C587.693 48.4473 587.49 47.6719 587.084 47.1328C586.678 46.5898 586.109 46.3184 585.379 46.3184C584.668 46.3184 584.107 46.5898 583.697 47.1328C583.291 47.6719 583.082 48.4219 583.07 49.3828V50.0098C583.07 50.9902 583.275 51.7617 583.686 52.3242C584.1 52.8828 584.668 53.1621 585.391 53.1621C586.117 53.1621 586.68 52.8984 587.078 52.3711C587.477 51.8398 587.682 51.0801 587.693 50.0918V49.459ZM595.629 50.5488H593.625V54H592.494V45.4688H595.318C596.279 45.4688 597.018 45.6875 597.533 46.125C598.053 46.5625 598.312 47.1992 598.312 48.0352C598.312 48.5664 598.168 49.0293 597.879 49.4238C597.594 49.8184 597.195 50.1133 596.684 50.3086L598.688 53.9297V54H597.48L595.629 50.5488ZM593.625 49.6289H595.354C595.912 49.6289 596.355 49.4844 596.684 49.1953C597.016 48.9062 597.182 48.5195 597.182 48.0352C597.182 47.5078 597.023 47.1035 596.707 46.8223C596.395 46.541 595.941 46.3984 595.348 46.3945H593.625V49.6289ZM606.717 50.0566H603.02V53.0801H607.314V54H601.895V45.4688H607.256V46.3945H603.02V49.1367H606.717V50.0566Z" fill="black"/>
<path d="M365.264 50.6602V54H364.139V45.4688H367.285C368.219 45.4688 368.949 45.707 369.477 46.1836C370.008 46.6602 370.273 47.291 370.273 48.0762C370.273 48.9043 370.014 49.543 369.494 49.9922C368.979 50.4375 368.238 50.6602 367.273 50.6602H365.264ZM365.264 49.7402H367.285C367.887 49.7402 368.348 49.5996 368.668 49.3184C368.988 49.0332 369.148 48.623 369.148 48.0879C369.148 47.5801 368.988 47.1738 368.668 46.8691C368.348 46.5645 367.908 46.4062 367.35 46.3945H365.264V49.7402ZM376.838 50.5488H374.834V54H373.703V45.4688H376.527C377.488 45.4688 378.227 45.6875 378.742 46.125C379.262 46.5625 379.521 47.1992 379.521 48.0352C379.521 48.5664 379.377 49.0293 379.088 49.4238C378.803 49.8184 378.404 50.1133 377.893 50.3086L379.896 53.9297V54H378.689L376.838 50.5488ZM374.834 49.6289H376.562C377.121 49.6289 377.564 49.4844 377.893 49.1953C378.225 48.9062 378.391 48.5195 378.391 48.0352C378.391 47.5078 378.232 47.1035 377.916 46.8223C377.604 46.541 377.15 46.3984 376.557 46.3945H374.834V49.6289ZM389.666 50.0098C389.666 50.8457 389.525 51.5762 389.244 52.2012C388.963 52.8223 388.564 53.2969 388.049 53.625C387.533 53.9531 386.932 54.1172 386.244 54.1172C385.572 54.1172 384.977 53.9531 384.457 53.625C383.938 53.293 383.533 52.8223 383.244 52.2129C382.959 51.5996 382.812 50.8906 382.805 50.0859V49.4707C382.805 48.6504 382.947 47.9258 383.232 47.2969C383.518 46.668 383.92 46.1875 384.439 45.8555C384.963 45.5195 385.561 45.3516 386.232 45.3516C386.916 45.3516 387.518 45.5176 388.037 45.8496C388.561 46.1777 388.963 46.6562 389.244 47.2852C389.525 47.9102 389.666 48.6387 389.666 49.4707V50.0098ZM388.547 49.459C388.547 48.4473 388.344 47.6719 387.938 47.1328C387.531 46.5898 386.963 46.3184 386.232 46.3184C385.521 46.3184 384.961 46.5898 384.551 47.1328C384.145 47.6719 383.936 48.4219 383.924 49.3828V50.0098C383.924 50.9902 384.129 51.7617 384.539 52.3242C384.953 52.8828 385.521 53.1621 386.244 53.1621C386.971 53.1621 387.533 52.8984 387.932 52.3711C388.33 51.8398 388.535 51.0801 388.547 50.0918V49.459ZM393.354 54V45.4688H395.762C396.504 45.4688 397.16 45.6328 397.73 45.9609C398.301 46.2891 398.74 46.7559 399.049 47.3613C399.361 47.9668 399.52 48.6621 399.523 49.4473V49.9922C399.523 50.7969 399.367 51.502 399.055 52.1074C398.746 52.7129 398.303 53.1777 397.725 53.502C397.15 53.8262 396.48 53.9922 395.715 54H393.354ZM394.479 46.3945V53.0801H395.662C396.529 53.0801 397.203 52.8105 397.684 52.2715C398.168 51.7324 398.41 50.9648 398.41 49.9688V49.4707C398.41 48.502 398.182 47.75 397.725 47.2148C397.271 46.6758 396.627 46.4023 395.791 46.3945H394.479ZM409.234 45.4688V51.2695C409.23 52.0742 408.977 52.7324 408.473 53.2441C407.973 53.7559 407.293 54.043 406.434 54.1055L406.135 54.1172C405.201 54.1172 404.457 53.8652 403.902 53.3613C403.348 52.8574 403.066 52.1641 403.059 51.2812V45.4688H404.172V51.2461C404.172 51.8633 404.342 52.3438 404.682 52.6875C405.021 53.0273 405.506 53.1973 406.135 53.1973C406.771 53.1973 407.258 53.0273 407.594 52.6875C407.934 52.3477 408.104 51.8691 408.104 51.252V45.4688H409.234ZM419.285 51.293C419.18 52.1953 418.846 52.8926 418.283 53.3848C417.725 53.873 416.98 54.1172 416.051 54.1172C415.043 54.1172 414.234 53.7559 413.625 53.0332C413.02 52.3105 412.717 51.3438 412.717 50.1328V49.3125C412.717 48.5195 412.857 47.8223 413.139 47.2207C413.424 46.6191 413.826 46.1582 414.346 45.8379C414.865 45.5137 415.467 45.3516 416.15 45.3516C417.057 45.3516 417.783 45.6055 418.33 46.1133C418.877 46.6172 419.195 47.3164 419.285 48.2109H418.154C418.057 47.5312 417.844 47.0391 417.516 46.7344C417.191 46.4297 416.736 46.2773 416.15 46.2773C415.432 46.2773 414.867 46.543 414.457 47.0742C414.051 47.6055 413.848 48.3613 413.848 49.3418V50.168C413.848 51.0938 414.041 51.8301 414.428 52.377C414.814 52.9238 415.355 53.1973 416.051 53.1973C416.676 53.1973 417.154 53.0566 417.486 52.7754C417.822 52.4902 418.045 51.9961 418.154 51.293H419.285ZM428.545 46.3945H425.803V54H424.684V46.3945H421.947V45.4688H428.545V46.3945ZM434.23 50.1973C433.266 49.9199 432.562 49.5801 432.121 49.1777C431.684 48.7715 431.465 48.2715 431.465 47.6777C431.465 47.0059 431.732 46.4512 432.268 46.0137C432.807 45.5723 433.506 45.3516 434.365 45.3516C434.951 45.3516 435.473 45.4648 435.93 45.6914C436.391 45.918 436.746 46.2305 436.996 46.6289C437.25 47.0273 437.377 47.4629 437.377 47.9355H436.246C436.246 47.4199 436.082 47.0156 435.754 46.7227C435.426 46.4258 434.963 46.2773 434.365 46.2773C433.811 46.2773 433.377 46.4004 433.064 46.6465C432.756 46.8887 432.602 47.2266 432.602 47.6602C432.602 48.0078 432.748 48.3027 433.041 48.5449C433.338 48.7832 433.84 49.002 434.547 49.2012C435.258 49.4004 435.812 49.6211 436.211 49.8633C436.613 50.1016 436.91 50.3809 437.102 50.7012C437.297 51.0215 437.395 51.3984 437.395 51.832C437.395 52.5234 437.125 53.0781 436.586 53.4961C436.047 53.9102 435.326 54.1172 434.424 54.1172C433.838 54.1172 433.291 54.0059 432.783 53.7832C432.275 53.5566 431.883 53.248 431.605 52.8574C431.332 52.4668 431.195 52.0234 431.195 51.5273H432.326C432.326 52.043 432.516 52.4512 432.895 52.752C433.277 53.0488 433.787 53.1973 434.424 53.1973C435.018 53.1973 435.473 53.0762 435.789 52.834C436.105 52.5918 436.264 52.2617 436.264 51.8438C436.264 51.4258 436.117 51.1035 435.824 50.877C435.531 50.6465 435 50.4199 434.23 50.1973Z" fill="black"/>
<path d="M1171.96 50.1973C1171 49.9199 1170.3 49.5801 1169.86 49.1777C1169.42 48.7715 1169.2 48.2715 1169.2 47.6777C1169.2 47.0059 1169.47 46.4512 1170 46.0137C1170.54 45.5723 1171.24 45.3516 1172.1 45.3516C1172.69 45.3516 1173.21 45.4648 1173.66 45.6914C1174.12 45.918 1174.48 46.2305 1174.73 46.6289C1174.98 47.0273 1175.11 47.4629 1175.11 47.9355H1173.98C1173.98 47.4199 1173.82 47.0156 1173.49 46.7227C1173.16 46.4258 1172.7 46.2773 1172.1 46.2773C1171.54 46.2773 1171.11 46.4004 1170.8 46.6465C1170.49 46.8887 1170.34 47.2266 1170.34 47.6602C1170.34 48.0078 1170.48 48.3027 1170.78 48.5449C1171.07 48.7832 1171.57 49.002 1172.28 49.2012C1172.99 49.4004 1173.55 49.6211 1173.95 49.8633C1174.35 50.1016 1174.64 50.3809 1174.84 50.7012C1175.03 51.0215 1175.13 51.3984 1175.13 51.832C1175.13 52.5234 1174.86 53.0781 1174.32 53.4961C1173.78 53.9102 1173.06 54.1172 1172.16 54.1172C1171.57 54.1172 1171.03 54.0059 1170.52 53.7832C1170.01 53.5566 1169.62 53.248 1169.34 52.8574C1169.07 52.4668 1168.93 52.0234 1168.93 51.5273H1170.06C1170.06 52.043 1170.25 52.4512 1170.63 52.752C1171.01 53.0488 1171.52 53.1973 1172.16 53.1973C1172.75 53.1973 1173.21 53.0762 1173.52 52.834C1173.84 52.5918 1174 52.2617 1174 51.8438C1174 51.4258 1173.85 51.1035 1173.56 50.877C1173.27 50.6465 1172.73 50.4199 1171.96 50.1973ZM1185.13 54H1184V50.0566H1179.7V54H1178.58V45.4688H1179.7V49.1367H1184V45.4688H1185.13V54ZM1195.69 50.0098C1195.69 50.8457 1195.55 51.5762 1195.27 52.2012C1194.99 52.8223 1194.59 53.2969 1194.08 53.625C1193.56 53.9531 1192.96 54.1172 1192.27 54.1172C1191.6 54.1172 1191 53.9531 1190.48 53.625C1189.96 53.293 1189.56 52.8223 1189.27 52.2129C1188.99 51.5996 1188.84 50.8906 1188.83 50.0859V49.4707C1188.83 48.6504 1188.97 47.9258 1189.26 47.2969C1189.54 46.668 1189.95 46.1875 1190.47 45.8555C1190.99 45.5195 1191.59 45.3516 1192.26 45.3516C1192.94 45.3516 1193.54 45.5176 1194.06 45.8496C1194.59 46.1777 1194.99 46.6562 1195.27 47.2852C1195.55 47.9102 1195.69 48.6387 1195.69 49.4707V50.0098ZM1194.57 49.459C1194.57 48.4473 1194.37 47.6719 1193.96 47.1328C1193.56 46.5898 1192.99 46.3184 1192.26 46.3184C1191.55 46.3184 1190.99 46.5898 1190.58 47.1328C1190.17 47.6719 1189.96 48.4219 1189.95 49.3828V50.0098C1189.95 50.9902 1190.16 51.7617 1190.57 52.3242C1190.98 52.8828 1191.55 53.1621 1192.27 53.1621C1193 53.1621 1193.56 52.8984 1193.96 52.3711C1194.36 51.8398 1194.56 51.0801 1194.57 50.0918V49.459ZM1201.22 51.3105L1201.38 52.4355L1201.62 51.4219L1203.31 45.4688H1204.26L1205.91 51.4219L1206.14 52.4531L1206.32 51.3047L1207.65 45.4688H1208.78L1206.71 54H1205.69L1203.93 47.7832L1203.79 47.1328L1203.66 47.7832L1201.84 54H1200.81L1198.75 45.4688H1199.87L1201.22 51.3105ZM1215.16 50.5488H1213.16V54H1212.03V45.4688H1214.85C1215.81 45.4688 1216.55 45.6875 1217.07 46.125C1217.59 46.5625 1217.85 47.1992 1217.85 48.0352C1217.85 48.5664 1217.7 49.0293 1217.41 49.4238C1217.13 49.8184 1216.73 50.1133 1216.22 50.3086L1218.22 53.9297V54H1217.01L1215.16 50.5488ZM1213.16 49.6289H1214.89C1215.45 49.6289 1215.89 49.4844 1216.22 49.1953C1216.55 48.9062 1216.71 48.5195 1216.71 48.0352C1216.71 47.5078 1216.56 47.1035 1216.24 46.8223C1215.93 46.541 1215.47 46.3984 1214.88 46.3945H1213.16V49.6289ZM1227.99 50.0098C1227.99 50.8457 1227.85 51.5762 1227.57 52.2012C1227.29 52.8223 1226.89 53.2969 1226.37 53.625C1225.86 53.9531 1225.26 54.1172 1224.57 54.1172C1223.9 54.1172 1223.3 53.9531 1222.78 53.625C1222.26 53.293 1221.86 52.8223 1221.57 52.2129C1221.28 51.5996 1221.14 50.8906 1221.13 50.0859V49.4707C1221.13 48.6504 1221.27 47.9258 1221.56 47.2969C1221.84 46.668 1222.24 46.1875 1222.76 45.8555C1223.29 45.5195 1223.88 45.3516 1224.56 45.3516C1225.24 45.3516 1225.84 45.5176 1226.36 45.8496C1226.88 46.1777 1227.29 46.6562 1227.57 47.2852C1227.85 47.9102 1227.99 48.6387 1227.99 49.4707V50.0098ZM1226.87 49.459C1226.87 48.4473 1226.67 47.6719 1226.26 47.1328C1225.86 46.5898 1225.29 46.3184 1224.56 46.3184C1223.85 46.3184 1223.29 46.5898 1222.88 47.1328C1222.47 47.6719 1222.26 48.4219 1222.25 49.3828V50.0098C1222.25 50.9902 1222.45 51.7617 1222.86 52.3242C1223.28 52.8828 1223.85 53.1621 1224.57 53.1621C1225.29 53.1621 1225.86 52.8984 1226.26 52.3711C1226.65 51.8398 1226.86 51.0801 1226.87 50.0918V49.459ZM1238.24 50.0098C1238.24 50.8457 1238.1 51.5762 1237.82 52.2012C1237.54 52.8223 1237.14 53.2969 1236.62 53.625C1236.11 53.9531 1235.51 54.1172 1234.82 54.1172C1234.15 54.1172 1233.55 53.9531 1233.03 53.625C1232.51 53.293 1232.11 52.8223 1231.82 52.2129C1231.53 51.5996 1231.39 50.8906 1231.38 50.0859V49.4707C1231.38 48.6504 1231.52 47.9258 1231.81 47.2969C1232.09 46.668 1232.49 46.1875 1233.01 45.8555C1233.54 45.5195 1234.13 45.3516 1234.81 45.3516C1235.49 45.3516 1236.09 45.5176 1236.61 45.8496C1237.13 46.1777 1237.54 46.6562 1237.82 47.2852C1238.1 47.9102 1238.24 48.6387 1238.24 49.4707V50.0098ZM1237.12 49.459C1237.12 48.4473 1236.92 47.6719 1236.51 47.1328C1236.11 46.5898 1235.54 46.3184 1234.81 46.3184C1234.1 46.3184 1233.54 46.5898 1233.12 47.1328C1232.72 47.6719 1232.51 48.4219 1232.5 49.3828V50.0098C1232.5 50.9902 1232.7 51.7617 1233.11 52.3242C1233.53 52.8828 1234.1 53.1621 1234.82 53.1621C1235.54 53.1621 1236.11 52.8984 1236.51 52.3711C1236.9 51.8398 1237.11 51.0801 1237.12 50.0918V49.459ZM1243.38 45.4688L1246.17 52.4297L1248.96 45.4688H1250.42V54H1249.29V50.6777L1249.4 47.0918L1246.6 54H1245.74L1242.94 47.1094L1243.05 50.6777V54H1241.93V45.4688H1243.38ZM1256.92 50.1973C1255.95 49.9199 1255.25 49.5801 1254.81 49.1777C1254.37 48.7715 1254.15 48.2715 1254.15 47.6777C1254.15 47.0059 1254.42 46.4512 1254.96 46.0137C1255.49 45.5723 1256.19 45.3516 1257.05 45.3516C1257.64 45.3516 1258.16 45.4648 1258.62 45.6914C1259.08 45.918 1259.43 46.2305 1259.68 46.6289C1259.94 47.0273 1260.06 47.4629 1260.06 47.9355H1258.93C1258.93 47.4199 1258.77 47.0156 1258.44 46.7227C1258.11 46.4258 1257.65 46.2773 1257.05 46.2773C1256.5 46.2773 1256.06 46.4004 1255.75 46.6465C1255.44 46.8887 1255.29 47.2266 1255.29 47.6602C1255.29 48.0078 1255.44 48.3027 1255.73 48.5449C1256.03 48.7832 1256.53 49.002 1257.23 49.2012C1257.95 49.4004 1258.5 49.6211 1258.9 49.8633C1259.3 50.1016 1259.6 50.3809 1259.79 50.7012C1259.98 51.0215 1260.08 51.3984 1260.08 51.832C1260.08 52.5234 1259.81 53.0781 1259.27 53.4961C1258.73 53.9102 1258.01 54.1172 1257.11 54.1172C1256.53 54.1172 1255.98 54.0059 1255.47 53.7832C1254.96 53.5566 1254.57 53.248 1254.29 52.8574C1254.02 52.4668 1253.88 52.0234 1253.88 51.5273H1255.01C1255.01 52.043 1255.2 52.4512 1255.58 52.752C1255.96 53.0488 1256.47 53.1973 1257.11 53.1973C1257.71 53.1973 1258.16 53.0762 1258.48 52.834C1258.79 52.5918 1258.95 52.2617 1258.95 51.8438C1258.95 51.4258 1258.8 51.1035 1258.51 50.877C1258.22 50.6465 1257.69 50.4199 1256.92 50.1973Z" fill="black"/>
<g clip-path="url(#clip0_2141_178)">
<path fill-rule="evenodd" clip-rule="evenodd" d="M1133.99 47.1163C1133.99 42.0848 1138.06 38 1143.08 38C1148.1 38 1152.17 42.0848 1152.17 47.1163C1152.17 50.7874 1149.56 54.0916 1147.37 56.8531L1143.5 61.7875C1143.26 62.0381 1142.9 62.0993 1142.66 61.7941C1142.25 61.2667 1141.83 60.7227 1141.42 60.1752C1140.55 59.0419 1139.68 57.8936 1138.78 56.8465L1138.78 56.8459C1136.6 54.0844 1133.99 50.7841 1133.99 47.1163ZM1151.11 47.1163C1151.11 42.6664 1147.52 39.066 1143.08 39.066C1138.64 39.066 1135.05 42.6664 1135.05 47.1163C1135.05 50.4164 1137.53 53.5565 1139.61 56.1836L1139.61 56.1846C1140.34 57.1646 1141.12 58.1381 1141.89 59.1069C1142.29 59.6073 1142.69 60.1065 1143.08 60.6046L1146.54 56.1924L1146.55 56.1904C1148.62 53.5623 1151.11 50.419 1151.11 47.1163Z" fill="black"/>
<path fill-rule="evenodd" clip-rule="evenodd" d="M1139.18 46.8891C1139.18 44.4381 1141.13 42.4443 1143.51 42.4443C1145.9 42.4443 1147.84 44.4381 1147.84 46.8891C1147.84 49.3401 1145.9 51.3332 1143.51 51.3332C1141.12 51.3332 1139.18 49.3424 1139.18 46.8891ZM1146.83 46.8891C1146.83 45.0045 1145.35 43.4827 1143.51 43.4827C1141.68 43.4827 1140.2 45.0051 1140.2 46.8891C1140.2 48.7707 1141.68 50.2949 1143.51 50.2949C1145.35 50.2949 1146.83 48.7736 1146.83 46.8891Z" fill="black"/>
</g>
<g clip-path="url(#clip1_2141_178)">
<path d="M83.0414 60.7752C83.0746 60.7728 83.108 60.7728 83.1412 60.7752H86.4592C86.5245 60.8464 86.5679 60.9349 86.584 61.0302C87.1761 62.8036 87.7715 64.5769 88.3702 66.3502L90.2712 72.0002C90.2712 72.0852 90.3311 72.1652 90.376 72.2802C90.4209 72.1702 90.4558 72.0952 90.4808 72.0202L92.5764 65.8352L94.208 61.0002C94.2379 60.9152 94.2728 60.8302 94.3078 60.7402H97.6258H97.7405C97.7554 60.7648 97.7656 60.7919 97.7705 60.8202C97.7705 65.4302 97.7705 70.0402 97.7705 74.6502C97.7739 74.6801 97.7739 74.7103 97.7705 74.7402C97.7705 74.7402 97.7356 74.7402 97.7206 74.7402H95.5801H95.4753C95.4753 74.6952 95.4753 74.6552 95.4753 74.6202C95.4753 74.5852 95.4753 74.4552 95.4753 74.3702C95.4753 70.8669 95.4753 67.3669 95.4753 63.8702C95.489 63.7607 95.4771 63.6494 95.4404 63.5452C95.2757 63.9452 95.166 64.3252 95.0362 64.6902C94.9065 65.0552 94.7818 65.4402 94.652 65.8152C94.5223 66.1902 94.4026 66.5502 94.2728 66.9152C94.1431 67.2802 94.0184 67.6602 93.8886 68.0352L93.5044 69.1602C93.3747 69.5352 93.25 69.9102 93.1202 70.2802C92.9905 70.6502 92.8658 71.0302 92.7361 71.4052C92.6063 71.7802 92.4866 72.1352 92.3569 72.5052C92.2271 72.8752 92.1024 73.2502 91.9727 73.6252C91.8429 74.0002 91.7182 74.3752 91.5935 74.7402C91.3989 74.7802 89.7274 74.7952 89.2135 74.7402C89.1336 74.6852 89.1236 74.5852 89.0987 74.5052L87.8314 70.9002L85.4464 63.9002C85.4464 63.8252 85.3915 63.7502 85.3566 63.6702C85.2917 63.6702 85.3166 63.7452 85.3166 63.7752C85.3166 63.8052 85.3166 63.9402 85.3166 64.0252V74.4702C85.3166 74.5702 85.3166 74.6652 85.3166 74.7702C85.2833 74.7852 85.248 74.7953 85.2119 74.8002H83.1063H83.0464C83.0319 74.7577 83.0202 74.7143 83.0115 74.6702C83.0115 74.6052 83.0115 74.5402 83.0115 74.4752V61.0952C82.9966 60.9877 83.0068 60.8781 83.0414 60.7752Z" fill="black"/>
<path d="M62.0904 67.6603C62.1111 68.9049 61.8429 70.1373 61.3071 71.2603C60.8884 72.1256 60.2847 72.8878 59.5387 73.4927C58.7927 74.0976 57.9229 74.5304 56.9911 74.7603C56.1126 74.9899 55.2002 75.061 54.2968 74.9703C53.4309 74.8971 52.5856 74.6667 51.802 74.2903C51.0081 73.9023 50.3 73.3586 49.7197 72.6912C49.1395 72.0238 48.6989 71.2465 48.4241 70.4053C48.1059 69.4713 47.9621 68.4865 48 67.5003C48.0178 66.6229 48.1866 65.7551 48.499 64.9353C48.8867 63.8353 49.5606 62.8591 50.4509 62.1076C51.3413 61.356 52.4158 60.8563 53.5633 60.6603C54.8937 60.3816 56.2751 60.4767 57.5549 60.9353C58.5094 61.2642 59.375 61.81 60.0839 62.5299C60.7928 63.2499 61.3259 64.1245 61.6414 65.0853C61.872 65.7394 62.0098 66.4227 62.0505 67.1153C62.0705 67.3203 62.0854 67.5453 62.0904 67.6603ZM59.6855 67.6103C59.6813 67.2576 59.6446 66.9061 59.5757 66.5603C59.4739 65.9396 59.2591 65.343 58.942 64.8003C58.6641 64.3078 58.2897 63.8767 57.8412 63.533C57.3928 63.1893 56.8796 62.9401 56.3325 62.8003C55.5146 62.5864 54.6556 62.5864 53.8377 62.8003C52.8765 63.0348 52.0285 63.6013 51.4428 64.4003C51.0451 64.9221 50.7566 65.519 50.5946 66.1553C50.4153 66.8756 50.3596 67.6212 50.4299 68.3603C50.4785 68.9935 50.6337 69.6139 50.8889 70.1953C51.1202 70.7531 51.4665 71.2556 51.905 71.6701C52.3435 72.0845 52.8644 72.4015 53.4336 72.6003C54.1191 72.8443 54.8517 72.9265 55.5741 72.8403C56.3775 72.7693 57.1455 72.476 57.7922 71.9931C58.4389 71.5101 58.9389 70.8565 59.2364 70.1053C59.553 69.3126 59.7058 68.4638 59.6855 67.6103Z" fill="black"/>
<path d="M98 32.15C98.0215 33.3122 97.7917 34.4653 97.3264 35.53C96.9105 36.4839 96.2734 37.3245 95.4681 37.9819C94.6627 38.6394 93.7124 39.0947 92.6961 39.31C91.3112 39.6512 89.8573 39.5835 88.5099 39.115C87.5309 38.7938 86.6416 38.2449 85.9149 37.5132C85.1881 36.7814 84.6446 35.8877 84.3287 34.905C84.0252 33.9972 83.8883 33.0418 83.9246 32.085C83.935 31.2252 84.0832 30.3727 84.3636 29.56C84.7403 28.438 85.4101 27.4376 86.3034 26.6629C87.1967 25.8882 88.2808 25.3675 89.443 25.155C90.7724 24.8772 92.1522 24.9671 93.4346 25.415C94.3952 25.739 95.2673 26.2827 95.9817 27.003C96.6962 27.7233 97.2335 28.6005 97.5509 29.565C97.7832 30.2086 97.9226 30.882 97.9651 31.565C97.98 31.8 97.995 32.03 98 32.15ZM95.605 32.27C95.605 32 95.5701 31.725 95.5402 31.455C95.4762 30.7979 95.2901 30.1585 94.9913 29.57C94.7364 29.0415 94.3752 28.5715 93.9305 28.1895C93.4857 27.8075 92.9669 27.5217 92.4067 27.35C91.7029 27.1333 90.9597 27.0769 90.2313 27.185C89.1398 27.3186 88.143 27.8727 87.4521 28.73C86.9475 29.3532 86.6046 30.0918 86.4542 30.88C86.3079 31.5581 86.2709 32.2553 86.3445 32.945C86.4143 33.6297 86.6088 34.2957 86.9183 34.91C87.3883 35.9058 88.2253 36.6801 89.2534 37.07C89.9482 37.3337 90.6948 37.4313 91.4338 37.355C92.0921 37.3036 92.7309 37.1072 93.3049 36.78C94.1749 36.2608 94.838 35.4549 95.1809 34.5C95.4558 33.7885 95.5995 33.033 95.605 32.27Z" fill="black"/>
<path d="M56.2627 33.0004L56.5022 33.1104C57.162 33.3883 57.6905 33.909 57.979 34.5654C58.1299 34.8946 58.2421 35.2403 58.3133 35.5954C58.5595 36.7354 58.8023 37.8721 59.0418 39.0054C59.0418 39.0954 59.0767 39.1804 59.0917 39.2854C59.051 39.2976 59.0092 39.3059 58.967 39.3104H56.7716H56.7017C56.7017 39.2604 56.6568 39.2004 56.6419 39.1404C56.4423 38.1904 56.241 37.2404 56.0381 36.2904C55.9882 36.0454 55.9184 35.7904 55.8535 35.5704C55.8388 35.5152 55.8188 35.4617 55.7936 35.4104C55.6536 34.9884 55.3959 34.6154 55.0511 34.3354C54.7063 34.0554 54.2887 33.8802 53.8477 33.8304C53.5782 33.793 53.3065 33.773 53.0344 33.7704H50.9638C50.8785 33.7544 50.7903 33.7685 50.7143 33.8104C50.6844 34.0654 50.7143 34.3104 50.7143 34.5904V39.2954C50.6717 39.3067 50.6283 39.3151 50.5846 39.3204H48.4441C48.4075 39.3235 48.3708 39.3235 48.3343 39.3204V39.1754C48.3318 39.1271 48.3318 39.0787 48.3343 39.0304V25.5904C48.3343 25.4904 48.3343 25.3954 48.3343 25.2854C48.4041 25.2812 48.4741 25.2812 48.5439 25.2854H54.187C54.8456 25.2782 55.5011 25.3778 56.1279 25.5804C56.4956 25.7014 56.8461 25.8694 57.1707 26.0804C57.8997 26.5518 58.432 27.2737 58.6676 28.1104C58.892 28.8929 58.892 29.7229 58.6676 30.5054C58.5361 30.9885 58.3047 31.4385 57.9884 31.8261C57.672 32.2138 57.2779 32.5304 56.8315 32.7554C56.7466 32.8054 56.6568 32.8454 56.567 32.8904L56.2627 33.0004ZM50.7143 31.6604H54.3417C54.6049 31.65 54.8645 31.596 55.1101 31.5004C55.4144 31.3918 55.6871 31.2094 55.9039 30.9695C56.1207 30.7296 56.2748 30.4396 56.3525 30.1254C56.4173 29.8777 56.4376 29.6203 56.4123 29.3654C56.3937 28.976 56.262 28.6006 56.0333 28.2852C55.8046 27.9699 55.4889 27.7284 55.125 27.5904C54.835 27.4718 54.5252 27.4091 54.212 27.4054H50.9937C50.9078 27.3898 50.8192 27.4003 50.7393 27.4354C50.7043 27.6804 50.6894 29.9354 50.7393 31.4704C50.6993 31.5004 50.7093 31.5704 50.7143 31.6604Z" fill="black"/>
</g>
<defs>
<clipPath id="clip0_2141_178">
<rect width="20" height="24" fill="white" transform="translate(1133 38)"/>
</clipPath>
<clipPath id="clip1_2141_178">
<rect width="50" height="50" fill="white" transform="translate(48 25)"/>
</clipPath>
</defs>
</svg>
